<svg width="446" height="446" viewBox="0 0 446 446" fill="none" xmlns="http://www.w3.org/2000/svg">
<rect width="446" height="446" fill="black"/>
<path d="M149.44 157.92H187.45C190.997 157.92 194.03 158.293 196.55 159.04C199.117 159.74 201.053 160.72 202.36 161.98C203.713 163.193 204.67 164.477 205.23 165.83C205.79 167.183 206.07 168.653 206.07 170.24V171.01C206.07 173.997 205.067 176.377 203.06 178.15C201.053 179.923 198.86 180.973 196.48 181.3C199.887 181.86 202.757 183.19 205.09 185.29C207.47 187.343 208.66 190.307 208.66 194.18V194.95C208.66 196.863 208.333 198.66 207.68 200.34C207.027 201.973 205.953 203.56 204.46 205.1C203.013 206.593 200.843 207.783 197.95 208.67C195.103 209.557 191.673 210 187.66 210H149.44V157.92ZM163.86 168.77V178.08H185.35C189.13 178.08 191.02 176.563 191.02 173.53V173.39C191.02 170.31 189.13 168.77 185.35 168.77H163.86ZM163.86 188.3V198.59H186.47C188.803 198.59 190.46 198.1 191.44 197.12C192.467 196.093 192.98 194.833 192.98 193.34V193.06C192.98 189.887 190.81 188.3 186.47 188.3H163.86ZM249.861 168.42L240.691 189.63H259.311L249.861 168.42ZM264.141 200.34H236.001L231.801 210H217.311L240.411 157.92H259.731L283.881 210H268.411L264.141 200.34ZM163.51 246.26V280H149.44V227.92H164.28L194.73 261.45V227.92H208.73V280H194.59L163.51 246.26ZM226.878 280V227.92H241.298V249.34L265.658 227.92H283.998L256.558 251.79L285.188 280H266.358L241.298 255.5V280H226.878ZM311.217 280H294.907V266.42H311.217V280Z" fill="#FFEDED"/>
</svg>
