<svg width="409" height="262" viewBox="0 0 409 262" fill="none" xmlns="http://www.w3.org/2000/svg">
<g filter="url(#filter0_d)">
<path d="M0 254V-6H405C405 -6 243.5 37.5 191.5 136.5C139.5 235.5 0 254 0 254Z" fill="black"/>
</g>
<path d="M63.1651 64.4039H81.8461C83.5892 64.4039 85.0801 64.5874 86.3186 64.9544C87.58 65.2984 88.5319 65.78 89.1741 66.3993C89.8392 66.9956 90.3094 67.6263 90.5846 68.2915C90.8598 68.9566 90.9974 69.6791 90.9974 70.4589V70.8373C90.9974 72.3052 90.5043 73.4749 89.5181 74.3465C88.5319 75.218 87.4539 75.7341 86.2842 75.8946C87.9585 76.1698 89.369 76.8235 90.5158 77.8556C91.6855 78.8648 92.2704 80.3212 92.2704 82.2248V82.6033C92.2704 83.5436 92.1098 84.4267 91.7887 85.2523C91.4676 86.0551 90.9401 86.8349 90.2062 87.5918C89.4952 88.3257 88.4286 88.9106 87.0066 89.3463C85.6076 89.7821 83.9218 90 81.9493 90H63.1651V64.4039ZM70.2522 69.7364V74.3121H80.814C82.6718 74.3121 83.6007 73.5667 83.6007 72.0758V72.007C83.6007 70.4933 82.6718 69.7364 80.814 69.7364H70.2522ZM70.2522 79.335V84.3923H81.3645C82.5113 84.3923 83.3255 84.1514 83.8071 83.6698C84.3117 83.1652 84.564 82.5459 84.564 81.812V81.6744C84.564 80.1148 83.4975 79.335 81.3645 79.335H70.2522ZM112.52 69.5644L108.013 79.9886H117.164L112.52 69.5644ZM119.538 85.2523H105.708L103.644 90H96.5221L107.875 64.4039H117.371L129.24 90H121.637L119.538 85.2523ZM70.0802 107.418V124H63.1651V98.4039H70.4586L85.4241 114.883V98.4039H92.3048V124H85.3553L70.0802 107.418ZM101.224 124V98.4039H108.311V108.931L120.283 98.4039H129.297L115.811 110.135L129.882 124H120.627L108.311 111.959V124H101.224ZM142.675 124H134.659V117.326H142.675V124Z" fill="#FFEDED"/>
<defs>
<filter id="filter0_d" x="-4" y="-6" width="413" height="268" filterUnits="userSpaceOnUse" color-interpolation-filters="sRGB">
<feFlood flood-opacity="0" result="BackgroundImageFix"/>
<feColorMatrix in="SourceAlpha" type="matrix" values="0 0 0 0 0 0 0 0 0 0 0 0 0 0 0 0 0 0 127 0"/>
<feOffset dy="4"/>
<feGaussianBlur stdDeviation="2"/>
<feColorMatrix type="matrix" values="0 0 0 0 0 0 0 0 0 0 0 0 0 0 0 0 0 0 0.25 0"/>
<feBlend mode="normal" in2="BackgroundImageFix" result="effect1_dropShadow"/>
<feBlend mode="normal" in="SourceGraphic" in2="effect1_dropShadow" result="shape"/>
</filter>
</defs>
</svg>
