<svg width="608" height="222" viewBox="0 0 608 222" fill="none" xmlns="http://www.w3.org/2000/svg">
<path d="M269.004 119.961C351.226 21.6379 608 -0.161654 608 -0.161654L-2 -1V222C-2 222 186.782 218.283 269.004 119.961Z" fill="black"/>
<path d="M57.0912 83.0016H75.336C77.0384 83.0016 78.4944 83.1808 79.704 83.5392C80.936 83.8752 81.8656 84.3456 82.4928 84.9504C83.1424 85.5328 83.6016 86.1488 83.8704 86.7984C84.1392 87.448 84.2736 88.1536 84.2736 88.9152V89.2848C84.2736 90.7184 83.792 91.8608 82.8288 92.712C81.8656 93.5632 80.8128 94.0672 79.6704 94.224C81.3056 94.4928 82.6832 95.1312 83.8032 96.1392C84.9456 97.1248 85.5168 98.5472 85.5168 100.406V100.776C85.5168 101.694 85.36 102.557 85.0464 103.363C84.7328 104.147 84.2176 104.909 83.5008 105.648C82.8064 106.365 81.7648 106.936 80.376 107.362C79.0096 107.787 77.3632 108 75.4368 108H57.0912V83.0016ZM64.0128 88.2096V92.6784H74.328C76.1424 92.6784 77.0496 91.9504 77.0496 90.4944V90.4272C77.0496 88.9488 76.1424 88.2096 74.328 88.2096H64.0128ZM64.0128 97.584V102.523H74.8656C75.9856 102.523 76.7808 102.288 77.2512 101.818C77.744 101.325 77.9904 100.72 77.9904 100.003V99.8688C77.9904 98.3456 76.9488 97.584 74.8656 97.584H64.0128ZM105.293 88.0416L100.892 98.2224H109.829L105.293 88.0416ZM112.148 103.363H98.6405L96.6245 108H89.6693L100.757 83.0016H110.031L121.623 108H114.197L112.148 103.363ZM134.346 91.8048V108H127.592V83.0016H134.715L149.331 99.096V83.0016H156.051V108H149.264L134.346 91.8048ZM164.762 108V83.0016H171.684V93.2832L183.377 83.0016H192.18L179.009 94.4592L192.751 108H183.713L171.684 96.24V108H164.762ZM205.245 108H197.416V101.482H205.245V108Z" fill="white"/>
</svg>
