<svg width="310" height="53" viewBox="0 0 310 53" fill="none" xmlns="http://www.w3.org/2000/svg">
<path d="M0.440001 0.919999H38.45C41.9967 0.919999 45.03 1.29333 47.55 2.04C50.1167 2.74 52.0533 3.72 53.36 4.98C54.7133 6.19333 55.67 7.47666 56.23 8.83C56.79 10.1833 57.07 11.6533 57.07 13.24V14.01C57.07 16.9967 56.0667 19.3767 54.06 21.15C52.0533 22.9233 49.86 23.9733 47.48 24.3C50.8867 24.86 53.7567 26.19 56.09 28.29C58.47 30.3433 59.66 33.3067 59.66 37.18V37.95C59.66 39.8633 59.3333 41.66 58.68 43.34C58.0267 44.9733 56.9533 46.56 55.46 48.1C54.0133 49.5933 51.8433 50.7833 48.95 51.67C46.1033 52.5567 42.6733 53 38.66 53H0.440001V0.919999ZM14.86 11.77V21.08H36.35C40.13 21.08 42.02 19.5633 42.02 16.53V16.39C42.02 13.31 40.13 11.77 36.35 11.77H14.86ZM14.86 31.3V41.59H37.47C39.8033 41.59 41.46 41.1 42.44 40.12C43.4667 39.0933 43.98 37.8333 43.98 36.34V36.06C43.98 32.8867 41.81 31.3 37.47 31.3H14.86ZM100.861 11.42L91.691 32.63H110.311L100.861 11.42ZM115.141 43.34H87.001L82.801 53H68.311L91.411 0.919999H110.731L134.881 53H119.411L115.141 43.34ZM161.387 19.26V53H147.317V0.919999H162.157L192.607 34.45V0.919999H206.607V53H192.467L161.387 19.26ZM224.754 53V0.919999H239.174V22.34L263.534 0.919999H281.874L254.434 24.79L283.064 53H264.234L239.174 28.5V53H224.754ZM309.094 53H292.784V39.42H309.094V53Z" fill="white"/>
</svg>
